<?xml version="1.0" encoding="utf-8"?>
<!-- Generator: Adobe Illustrator 23.0.2, SVG Export Plug-In . SVG Version: 6.00 Build 0)  -->
<svg version="1.1" id="Layer_1" xmlns="http://www.w3.org/2000/svg" xmlns:xlink="http://www.w3.org/1999/xlink" x="0px" y="0px"
	 viewBox="0 0 20 20" enable-background="new 0 0 20 20" xml:space="preserve">
<g id="XMLID_4_">
	<g id="XMLID_5_">
		<g id="XMLID_21_">
			<path id="XMLID_22_" fill="#EF4623" d="M1.6,15c-1,0-1.6-0.5-1.6-1.6V6.6C0,5.5,0.5,5,1.6,5h6c0.7,0,1.3,0.3,1.7,0.8
				c0.3,0.6,0.7,1.2,1,1.8c0.3-0.6,0.7-1.2,1-1.8C11.8,5.2,12.3,5,13,5h5.4c1,0,1.6,0.5,1.6,1.7v6.7c0,1-0.5,1.6-1.6,1.6H13
				c-0.7,0-1.3-0.3-1.7-0.8c-0.3-0.6-0.7-1.2-1-1.7c-0.3,0.6-0.7,1.2-1,1.8c-0.4,0.5-1,0.7-1.7,0.7L1.6,15L1.6,15z M2.5,12h5.5
				l1.1-2L8.1,8H2.5V12z M12.7,11.9h4.8V8h-4.8l-1.2,2L12.7,11.9z"/>
		</g>
	</g>
</g>
</svg>
