<?xml version="1.0" encoding="utf-8"?>
<!-- Generator: Adobe Illustrator 22.0.1, SVG Export Plug-In . SVG Version: 6.00 Build 0)  -->
<svg version="1.1" id="Layer_1" xmlns="http://www.w3.org/2000/svg" xmlns:xlink="http://www.w3.org/1999/xlink" x="0px" y="0px"
	 viewBox="0 0 28 28" style="enable-background:new 0 0 28 28;" xml:space="preserve">
<style type="text/css">
	.st0{fill:#E8C700;}
	.st1{fill:#73B72B;}
	.st2{fill:#E41713;}
	.st3{fill:#2E94D2;}
</style>
<g>
	<path class="st0" d="M8.2,24.3c-1.2,0-2.3-0.3-3-1.3c-0.6-0.8-0.7-2.1-0.4-3.5c0.3-1.2,0.9-2.4,1.6-3.1c1.5-1.5,3.6-2.4,5.8-2.4
		c1.1,0,2.2,0.1,3.2,0.5c1.1,0.4,2,1,2.8,1.7c0.8,0.8,1.1,1.5,1,2.3c-0.2,1.5-2.1,2.7-3.9,3.7C13.9,22.7,10.8,24.3,8.2,24.3z
		 M6.6,16.6l0.2,0.2c-0.6,0.6-1.2,1.8-1.5,2.9c-0.3,1.3-0.2,2.3,0.3,3c0.6,0.8,1.5,1,2.6,1c2.6,0,5.9-1.6,6.8-2.1
		c1.6-0.8,3.4-1.9,3.6-3.2c0.1-0.6-0.2-1.2-0.8-1.8c-2.9-2.8-8-2.7-10.9,0.2L6.6,16.6z"/>
	<path class="st1" d="M13,21.6c-1.3,0-3-0.3-4.3-0.6c-2.3-0.5-4.6-1.2-5.3-1.5c-2.6-1.3-3.7-3.4-3.3-6.5c0.2-1.5,0.7-2.8,1.4-4
		C2.2,8,3.1,7,4.3,6.3c2-1.3,4.6-2.1,7.5-2.4c2.6-0.2,5.4,0,7.8,0.7c1.8,0.5,3.8,1.7,5.5,3.1c1.8,1.6,2.9,3.3,2.9,4.8
		c0,0.9-0.3,1.6-0.9,2.3c-0.6,0.7-1.6,1.3-2.9,1.8c-1.9,0.7-3.8,1.1-5.6,1.1c-0.8,0-1.6-0.1-2.4-0.2c-0.3-0.1-0.8-0.2-1.3-0.4
		C14,16.8,13,16.5,12,16.3c-1.3-0.3-1.9-0.1-2.1,0c-0.1,0.1-0.2,0.2-0.2,0.4c-0.1,1,1,1.3,2.8,1.5c1.2,0.2,2.4,0.4,2.9,1.1
		c0.2,0.3,0.3,0.7,0.2,1.2c-0.1,0.3-0.3,0.6-0.7,0.8C14.3,21.6,13.7,21.6,13,21.6z M13.7,4.4c-3.2,0-6.5,0.7-9.1,2.4
		c-2.3,1.5-3.6,3.7-4,6.4c-0.3,2.8,0.6,4.7,3,5.9c0.6,0.3,2.8,1,5.1,1.5c2.8,0.6,4.9,0.7,5.8,0.3c0.2-0.1,0.4-0.2,0.4-0.4l0.3,0.1
		L15,20.4c0.1-0.3,0-0.5-0.1-0.7c-0.3-0.5-1.4-0.7-2.5-0.9c-0.8-0.1-1.6-0.3-2.2-0.5c-0.8-0.3-1.1-0.9-1-1.6c0-0.4,0.2-0.7,0.5-0.9
		c1-0.6,3.1,0,5.4,0.7c0.5,0.2,1,0.3,1.3,0.4c2.3,0.5,4.9,0.2,7.7-0.8c2.3-0.8,3.5-2,3.4-3.6c-0.1-2.9-4.4-6.4-8-7.4
		C17.8,4.7,15.8,4.4,13.7,4.4z"/>
	<path class="st2" d="M15.6,20.6c-1.4,0-3-0.1-4.5-0.4c-3.5-0.6-6.4-1.8-7.2-2.9c-0.7-1-0.9-1.9-0.6-2.9c0.3-0.9,0.9-1.8,2-2.7
		c0.8-0.6,1.6-1.1,2-1.3c2.5-1.1,5.2-1.5,7.8-1.2c2.5,0.3,4.9,1.4,6.7,2.9c0.7,0.6,1.3,1.4,1.7,2.3c0.4,0.9,0.6,1.8,0.4,2.6
		c-0.1,0.8-0.6,1.9-2.2,2.5c-1.5,0.6-3.2,0.9-5.2,1C16.3,20.6,15.9,20.6,15.6,20.6z M13.2,9.7c-1.9,0-3.9,0.4-5.7,1.2
		c-0.8,0.4-3.1,1.8-3.6,3.6c-0.2,0.8-0.1,1.6,0.5,2.5c0.3,0.5,1.2,1,2.4,1.5c1.3,0.5,2.8,0.9,4.5,1.2c1.5,0.3,3,0.4,4.4,0.4
		c2.3,0,4.3-0.3,6-1c1-0.4,1.7-1.1,1.8-2.1c0.2-1.4-0.6-3.2-2-4.3C19.1,10.7,16.2,9.7,13.2,9.7z"/>
	<path class="st3" d="M7.6,17.6c-0.2,0-0.3,0-0.5,0c-1.4,0-2.6-0.3-3.4-0.8c-0.8-0.5-1.3-1.1-1.5-1.9c-0.3-1.1,0.1-2.5,1-3.9
		C4.1,9.6,5.5,8.4,7,7.5c1.9-1.1,4.8-2.6,8-3.3c3.4-0.8,6.3-0.5,8.6,0.9c1.2,0.7,1.8,1.6,1.9,2.6c0.1,1.3-0.9,2.7-2.7,4
		C17.2,15.6,12.3,17.6,7.6,17.6z M18.5,4.3c-1.1,0-2.2,0.1-3.4,0.4C12,5.5,9.2,6.9,7.3,8c-1.5,0.9-2.7,2-3.6,3.3
		c-0.8,1.3-1.2,2.5-0.9,3.4c0.2,0.6,0.6,1.1,1.2,1.5c0.8,0.4,1.8,0.7,3.1,0.7c0.2,0,0.3,0,0.5,0c4.5,0,9.4-1.9,14.8-5.8
		c1.6-1.1,2.5-2.4,2.4-3.5c0-0.8-0.6-1.5-1.6-2.1C21.9,4.7,20.3,4.3,18.5,4.3z"/>
</g>
</svg>
